<?xml version="1.0" encoding="UTF-8" standalone="no"?>
<svg
   xmlns:dc="http://purl.org/dc/elements/1.1/"
   xmlns:cc="http://creativecommons.org/ns#"
   xmlns:rdf="http://www.w3.org/1999/02/22-rdf-syntax-ns#"
   xmlns:svg="http://www.w3.org/2000/svg"
   xmlns="http://www.w3.org/2000/svg"
   xmlns:sodipodi="http://sodipodi.sourceforge.net/DTD/sodipodi-0.dtd"
   xmlns:inkscape="http://www.inkscape.org/namespaces/inkscape"
   viewBox="0 0 300.47199 170.07801"
   version="1.1"
   id="svg20"
   sodipodi:docname="renren.svg"
   width="300.47198"
   height="170.078"
   inkscape:version="0.92.1 r15371">
  <metadata
     id="metadata26">
    <rdf:RDF>
      <cc:Work
         rdf:about="">
        <dc:format>image/svg+xml</dc:format>
        <dc:type
           rdf:resource="http://purl.org/dc/dcmitype/StillImage" />
        <dc:title></dc:title>
      </cc:Work>
    </rdf:RDF>
  </metadata>
  <defs
     id="defs24" />
  <sodipodi:namedview
     pagecolor="#ffffff"
     bordercolor="#666666"
     borderopacity="1"
     objecttolerance="10"
     gridtolerance="10"
     guidetolerance="10"
     inkscape:pageopacity="0"
     inkscape:pageshadow="2"
     inkscape:window-width="640"
     inkscape:window-height="480"
     id="namedview22"
     showgrid="false"
     fit-margin-top="0"
     fit-margin-left="0"
     fit-margin-right="0"
     fit-margin-bottom="0"
     inkscape:zoom="1.2030042"
     inkscape:cx="336.25449"
     inkscape:cy="85.039505"
     inkscape:current-layer="svg20" />
  <circle
     cx="85.039001"
     cy="85.039001"
     r="85.039001"
     id="circle10"
     style="fill:#ffffff" />
  <circle
     cx="215.43201"
     cy="85.039001"
     r="85.039001"
     id="circle12"
     style="fill:#ffffff" />
  <path
     d="M 70.871,55.003001 V 1.1960005 C 30.653,7.9450005 0,42.903001 0,85.040001 0,105.982 7.585,125.144 20.139,139.962 49.912,125.549 70.724,92.952001 70.871,55.003001 Z M 85.047,106.511 c -5.294,21.93 -21.119,40.679 -40.835,53.135 12.119,6.646 26.03,10.432 40.827,10.432 14.801,0 28.714,-3.788 40.835,-10.437 -19.711,-12.456 -35.533,-31.203 -40.827,-53.13 z M 149.942,30.113001 C 137.239,15.127001 119.44,4.5940005 99.217,1.1980005 V 54.600001 h 0.004 c 0,38.112 20.847,70.878999 50.714,85.349999 -12.548,-14.817 -20.129,-33.975 -20.129,-54.910999 0,-20.944 7.578,-40.111 20.136,-54.926 z m 0,0 c 12.558,14.814 20.724,33.981 20.724,54.927 0,20.938999 -8.169,40.096999 -20.72,54.915999 a 0.047,0.047 0 0 0 -0.01,-0.005 0.106,0.106 0 0 0 0.01,0.012 C 179.718,125.55 201.118,92.952001 201.264,55.004001 V 1.1960005 c -20.227,3.395 -38.617,13.9280005 -51.322,28.9170005 z"
     id="path14"
     inkscape:connector-curvature="0"
     style="fill:#005eac" />
  <path
     d="m 129.806,85.040001 c 0,20.935999 7.582,40.092999 20.129,54.910999 a 0.047,0.047 0 0 1 0.01,0.005 c 12.551,-14.818 20.72,-33.977 20.72,-54.915999 0,-20.945 -8.166,-40.112 -20.724,-54.927 -12.557,14.815 -20.135,33.982 -20.135,54.927 z"
     id="path16"
     inkscape:connector-curvature="0"
     style="fill:#ff3333" />
  <path
     d="m 229.61,54.601001 h 0.004 c 0,38.116 20.852,70.886999 50.724,85.354999 12.551,-14.818 20.134,-33.977 20.134,-54.915999 0,-42.134 -30.648,-77.0890005 -70.861,-83.8420005 V 54.601001 Z M 215.44,106.511 c -5.294,21.93 -21.119,40.679 -40.835,53.135 12.119,6.646 26.029,10.432 40.826,10.432 14.801,0 28.715,-3.788 40.836,-10.437 -19.712,-12.456 -35.533,-31.203 -40.827,-53.13 z"
     id="path18"
     inkscape:connector-curvature="0"
     style="fill:#005eac" />
</svg>
