<svg xmlns="http://www.w3.org/2000/svg" viewBox="0 0 478.165 478.165"><path d="M255.559 308.715l57.34-41.501c5.2 3.208 11.297 5.399 18.11 5.399 18.688 0 33.731-15.281 33.731-33.99 0-18.688-15.062-33.85-33.731-33.85-18.668 0-33.97 15.162-33.97 33.85 0 1.395.04 2.809.359 4.204l-41.839 30.264v-94.418l57.758-41.8c5.18 3.188 11.157 5.081 17.652 5.081 18.688 0 33.77-15.182 33.77-33.91 0-18.668-15.102-33.97-33.77-33.97-18.668 0-33.97 15.301-33.97 33.97 0 1.514.08 3.108.359 4.702l-41.839 30.204V0h-32.954v75.43l-42.019-30.363c.398-2.052.638-4.025.638-6.256 0-18.688-15.182-33.85-33.89-33.85-18.668 0-33.87 15.182-33.87 33.85 0 18.708 15.182 33.99 33.87 33.99 5.858 0 11.496-1.574 16.357-4.204l59.033 42.736v94.198l-42.019-30.403c.299-1.833.518-3.746.518-5.678 0-18.768-15.182-33.95-33.89-33.95-18.668 0-33.87 15.182-33.87 33.95 0 18.589 15.182 33.89 33.87 33.89 6.077 0 11.775-1.654 16.776-4.423l58.595 42.457v100.415l-41.979-30.383c.319-1.793.518-3.646.518-5.539 0-18.688-15.182-33.731-33.89-33.731-18.688 0-33.87 15.042-33.87 33.731 0 18.688 15.182 33.77 33.87 33.77a34.101 34.101 0 0 0 16.835-4.423l58.535 42.437v100.514H255.557v-33.153l57.24-41.441c5.2 3.487 11.356 5.399 18.17 5.399 18.688 0 33.75-15.281 33.75-33.97s-15.082-33.731-33.75-33.731-33.95 15.062-33.95 33.731c0 1.395.06 2.769.339 4.104l-41.839 30.264V308.715h.042z"/></svg>