<svg xmlns="http://www.w3.org/2000/svg" viewBox="0 0 300.47199 170.07801" width="300.472" height="170.078"><circle cx="85.039" cy="85.039" r="85.039" fill="#fff"/><circle cx="215.432" cy="85.039" r="85.039" fill="#fff"/><path d="M70.871 55.003V1.196C30.653 7.945 0 42.903 0 85.04c0 20.942 7.585 40.104 20.139 54.922 29.773-14.413 50.585-47.01 50.732-84.959zm14.176 51.508c-5.294 21.93-21.119 40.679-40.835 53.135 12.119 6.646 26.03 10.432 40.827 10.432 14.801 0 28.714-3.788 40.835-10.437-19.711-12.456-35.533-31.203-40.827-53.13zm64.895-76.398C137.239 15.127 119.44 4.594 99.217 1.198V54.6h.004c0 38.112 20.847 70.879 50.714 85.35-12.548-14.817-20.129-33.975-20.129-54.911 0-20.944 7.578-40.111 20.136-54.926zm0 0c12.558 14.814 20.724 33.981 20.724 54.927 0 20.939-8.169 40.097-20.72 54.916a.047.047 0 0 0-.01-.005.106.106 0 0 0 .01.012c29.772-14.413 51.172-47.011 51.318-84.959V1.196c-20.227 3.395-38.617 13.928-51.322 28.917z" fill="#005eac"/><path d="M129.806 85.04c0 20.936 7.582 40.093 20.129 54.911a.047.047 0 0 1 .01.005c12.551-14.818 20.72-33.977 20.72-54.916 0-20.945-8.166-40.112-20.724-54.927-12.557 14.815-20.135 33.982-20.135 54.927z" fill="#f33"/><path d="M229.61 54.601h.004c0 38.116 20.852 70.887 50.724 85.355 12.551-14.818 20.134-33.977 20.134-54.916 0-42.134-30.648-77.089-70.861-83.842v53.403zm-14.17 51.91c-5.294 21.93-21.119 40.679-40.835 53.135 12.119 6.646 26.029 10.432 40.826 10.432 14.801 0 28.715-3.788 40.836-10.437-19.712-12.456-35.533-31.203-40.827-53.13z" fill="#005eac"/></svg>